<?xml version="1.0" encoding="utf-8"?>
<!-- Generator: Adobe Illustrator 25.1.0, SVG Export Plug-In . SVG Version: 6.00 Build 0)  -->
<svg version="1.1" id="レイヤー_1" xmlns="http://www.w3.org/2000/svg" xmlns:xlink="http://www.w3.org/1999/xlink" x="0px"
	 y="0px" viewBox="0 0 740 740" style="enable-background:new 0 0 740 740;" xml:space="preserve">
<style type="text/css">
	.st0{fill:#00326E;}
</style>
<g id="logo">
</g>
<path class="st0" d="M692.7,63c4.6,11.1,2.3,24-6.5,32.3L458.6,322.9v342.5c0,12-7.4,22.6-18,27.2c-3.7,1.4-7.9,2.3-11.6,2.3
	c-7.9,0-15.2-2.8-20.8-8.8L290.1,568c-5.5-5.5-8.8-12.9-8.8-20.8V322.9L53.8,95.3C45,87,42.7,74.1,47.3,63c4.6-10.6,15.2-18,27.2-18
	h590.9C677.4,45,688.1,52.4,692.7,63z"/>
</svg>
